<?xml version="1.0" encoding="UTF-8" standalone="no"?>
<svg
   xmlns:dc="http://purl.org/dc/elements/1.1/"
   xmlns:cc="http://creativecommons.org/ns#"
   xmlns:rdf="http://www.w3.org/1999/02/22-rdf-syntax-ns#"
   xmlns:svg="http://www.w3.org/2000/svg"
   xmlns="http://www.w3.org/2000/svg"
   id="svg8"
   version="1.1"
   viewBox="0 0 210 297"
   height="297mm"
   width="210mm">
  <defs
     id="defs2" />
  <metadata
     id="metadata5">
    <rdf:RDF>
      <cc:Work
         rdf:about="">
        <dc:format>image/svg+xml</dc:format>
        <dc:type
           rdf:resource="http://purl.org/dc/dcmitype/StillImage" />
        <dc:title></dc:title>
      </cc:Work>
    </rdf:RDF>
  </metadata>
  <g
     id="layer1">
    <path
       id="path4515"
       d="M 99.660616,198.85263 C 72.070589,197.92806 34.348534,190.63638 11.319703,166.7722 3.7627598,157.42089 9.7761239,138.25299 18.86796,146.42561 c 6.578142,5.07073 15.576857,16.10227 20.305198,13.22607 1.119396,-23.55435 1.409537,-47.14946 1.412756,-70.762331 C 40.74017,69.350962 46.172491,48.315523 57.963374,40.022187 67.4531,31.169265 85.628676,29.034361 101.26209,28.91338 c 15.6334,-0.120987 25.97369,2.004764 43.61795,12.3777 9.22358,5.74349 15.98934,19.400787 17.21288,35.141261 2.46005,28.865179 1.30741,58.184129 3.78494,87.042889 10.83336,-1.37343 24.49112,-18.88152 30.52668,-8.10977 6.03556,10.77201 -2.98098,19.40415 -14.93739,26.14528 -11.95642,6.74114 -53.22622,18.29964 -81.806534,17.34189 z"
       style="fill:#000000;stroke:none;stroke-width:1" />
  </g>
</svg>
